<?xml version="1.0" standalone="no"?>
<!DOCTYPE svg PUBLIC "-//W3C//DTD SVG 20010904//EN"
 "http://www.w3.org/TR/2001/REC-SVG-20010904/DTD/svg10.dtd">
<svg version="1.0" xmlns="http://www.w3.org/2000/svg"
 width="400.000000pt" height="400.000000pt" viewBox="0 0 400.000000 400.000000"
 preserveAspectRatio="xMidYMid meet">
<metadata>
Created by potrace 1.11, written by Peter Selinger 2001-2013
</metadata>
<g transform="translate(0.000000,400.000000) scale(0.100000,-0.100000)"
fill="#000000" stroke="none">
<path d="M2445 3483 c-36 -54 -90 -133 -118 -175 -56 -84 -91 -107 -130 -86
-12 6 -56 37 -97 68 -41 31 -83 60 -93 64 -23 8 -64 -34 -100 -101 -14 -27
-41 -75 -60 -108 -20 -33 -57 -97 -82 -141 l-47 -82 -47 23 c-61 30 -134 46
-219 49 -58 2 -74 6 -100 28 -29 24 -34 25 -83 16 -57 -10 -128 -42 -130 -58
-1 -6 -2 -16 -3 -22 -1 -7 1 -20 6 -29 5 -13 -3 -24 -33 -45 -63 -44 -139
-156 -174 -259 -19 -58 -29 -207 -16 -253 8 -27 6 -34 -12 -47 -27 -19 -33 -9
-42 66 -7 62 -24 84 -100 130 -36 21 -51 24 -145 23 -145 -1 -220 -23 -281
-84 -53 -53 -77 -113 -86 -217 -6 -79 -13 -61 92 -258 23 -44 68 -129 100
-190 98 -187 366 -688 385 -720 10 -16 39 -70 66 -120 149 -279 225 -385 310
-425 67 -33 140 -23 409 54 6 1 30 8 55 15 25 7 113 36 195 63 83 28 159 51
170 51 11 0 61 -5 110 -12 50 -7 105 -14 123 -17 58 -7 96 -12 157 -20 35 -4
65 -13 71 -22 14 -19 124 -30 124 -12 0 19 172 4 188 -17 6 -9 20 -18 30 -19
9 -1 49 -8 88 -14 63 -11 75 -10 108 5 70 33 108 125 108 255 -1 78 -22 149
-45 151 -6 0 -49 3 -95 5 -46 3 -89 1 -95 -4 -7 -5 -34 -10 -62 -10 l-50 -1
33 14 c40 18 327 111 387 126 33 8 46 18 53 37 6 15 117 403 247 862 l237 834
-23 44 c-40 73 -133 168 -197 199 -50 24 -69 28 -147 28 -63 0 -104 -5 -137
-18 -54 -21 -98 -67 -98 -103 0 -25 -6 -28 -85 -39 -22 -3 -56 -8 -76 -11
l-36 -5 -193 293 c-189 287 -226 338 -241 338 -4 0 -38 -44 -74 -97z m193 -96
c50 -74 92 -139 92 -144 0 -4 -15 -31 -33 -58 -18 -28 -41 -72 -51 -98 -20
-54 -15 -54 -130 -6 -37 16 -74 29 -81 29 -13 0 -66 -76 -137 -195 -15 -25
-34 -45 -43 -45 -9 0 -30 17 -48 37 -57 67 -117 120 -147 133 -27 11 -33 10
-72 -21 -24 -19 -50 -40 -58 -48 -13 -13 -15 -8 -18 39 -4 60 -13 72 -55 64
-33 -5 -35 -12 50 133 53 92 77 123 92 123 5 0 50 -32 100 -71 83 -64 95 -70
129 -66 20 3 44 8 52 11 8 4 66 84 129 178 95 144 115 169 125 156 6 -9 53
-77 104 -151z m861 -311 c60 -20 67 -25 94 -74 l28 -53 -51 32 c-28 17 -54 29
-57 25 -3 -3 20 -40 52 -83 l58 -77 -11 -54 c-6 -30 -13 -57 -15 -59 -3 -2
-28 5 -56 17 -55 21 -91 26 -91 11 0 -5 29 -36 65 -68 61 -54 65 -60 59 -90
-6 -30 -10 -33 -45 -33 -22 0 -39 -3 -39 -6 0 -3 14 -22 30 -43 24 -29 29 -44
26 -72 -3 -19 -5 -39 -5 -46 -1 -9 -11 -8 -37 3 -20 8 -38 13 -40 11 -2 -2 9
-22 26 -45 16 -23 30 -46 30 -51 0 -5 -36 -141 -80 -303 -44 -161 -97 -355
-117 -430 -33 -118 -40 -137 -55 -132 -22 7 -22 1 -2 -65 12 -43 13 -59 3 -89
-11 -33 -13 -35 -21 -16 -20 43 -44 46 -136 18 -22 -6 -22 -6 -17 82 2 49 7
136 10 194 3 58 7 148 10 200 3 52 7 142 10 200 3 58 7 143 10 190 2 47 7 135
10 195 3 61 7 144 10 185 2 41 7 125 10 185 13 272 21 311 68 336 75 41 156
42 266 5z m-362 -403 c-4 -153 -9 -289 -11 -303 -2 -14 -7 -86 -10 -160 -4
-74 -9 -151 -11 -170 -3 -32 -14 -213 -21 -355 -18 -392 -18 -388 -55 -440
l-32 -44 20 -39 19 -39 -80 -23 c-214 -61 -348 -105 -536 -180 -113 -44 -219
-88 -237 -96 -31 -14 -201 -77 -253 -94 -117 -38 -228 -72 -240 -75 -8 -1 -35
-8 -60 -15 -43 -12 -54 -14 -103 -25 -28 -6 -136 -9 -142 -4 -2 3 0 22 5 44
12 54 -17 124 -102 246 -93 134 -108 167 -177 404 -11 39 -34 116 -51 171 -47
157 -127 515 -175 777 -4 26 0 30 173 116 235 117 464 216 607 263 155 50 471
125 830 197 214 43 214 43 350 67 50 9 133 24 185 34 52 10 99 18 104 19 5 1
6 -115 3 -276z m-1619 227 c31 -7 83 -26 114 -42 57 -30 158 -121 158 -142 0
-6 -67 -32 -148 -59 -153 -49 -167 -53 -158 -39 5 9 -23 223 -30 231 -8 8 -12
-4 -19 -49 -4 -25 -8 -52 -10 -60 -2 -8 -6 -49 -10 -91 l-7 -76 -92 -38 c-50
-21 -138 -63 -195 -92 -57 -30 -105 -52 -108 -50 -11 11 -9 117 3 174 47 229
274 379 502 333z m-804 -407 c122 -38 123 -41 152 -278 8 -73 19 -143 35 -225
14 -74 121 -491 170 -662 65 -228 96 -306 165 -411 35 -54 64 -99 64 -101 0
-1 -14 -1 -30 2 -47 7 -85 -14 -103 -56 -27 -62 -30 -99 -13 -133 21 -42 20
-46 -5 -23 -28 26 -49 67 -45 90 13 67 16 134 6 134 -14 0 -50 -37 -50 -52 -1
-31 -20 20 -20 52 0 48 -14 69 -28 44 -6 -10 -12 -17 -15 -14 -18 21 -171 308
-223 418 -36 75 -77 161 -91 190 -16 34 -26 68 -25 93 1 21 -3 40 -8 40 -6 1
-16 2 -22 3 -7 0 -13 8 -13 16 0 8 -8 26 -17 40 -20 29 -26 57 -27 119 -1 35
-4 42 -13 33 -20 -20 -28 -14 -50 34 -20 47 -20 74 -2 177 5 31 4 36 -8 32 -9
-4 -21 -18 -28 -33 -18 -38 -25 -11 -11 45 7 25 14 64 18 86 l5 40 -31 -22
c-17 -12 -33 -26 -37 -32 -4 -6 -11 -6 -19 1 -12 10 -10 23 12 81 39 106 20
102 -69 -11 -23 -29 -29 -32 -37 -20 -40 59 64 251 163 302 79 41 122 42 250
1z m2486 -1248 c15 -19 5 -66 -22 -94 -17 -19 -29 -22 -71 -19 -45 3 -54 7
-65 30 -11 23 -10 32 3 55 l15 28 -6 -37 c-5 -31 -2 -39 18 -52 28 -18 87 -12
106 12 6 9 12 31 12 49 0 32 -1 33 -32 28 -41 -8 -48 -12 -48 -35 0 -25 18
-36 26 -16 3 9 10 14 15 11 13 -9 -2 -35 -20 -35 -45 0 -54 52 -13 74 35 19
66 20 82 1z m-229 -310 c-16 -19 -35 -54 -42 -77 -14 -53 -15 -184 0 -220 10
-26 9 -27 -12 -24 -12 3 -32 5 -44 5 -30 1 -42 44 -38 136 2 75 17 113 67 178
24 30 36 37 65 37 l35 0 -31 -35z m109 0 c9 -10 13 -49 14 -108 0 -79 -3 -100
-24 -142 -33 -65 -53 -77 -82 -47 -20 20 -23 33 -23 110 0 70 4 96 23 133 19
39 47 66 73 68 4 1 12 -6 19 -14z m-513 -57 c-20 -32 -21 -106 -3 -158 8 -24
14 -46 12 -47 -1 -2 -16 0 -33 3 -24 5 -33 13 -42 44 -14 48 -14 112 0 143 6
14 25 29 43 34 39 12 41 10 23 -19z m-1287 -116 c29 -24 38 -92 15 -116 -19
-18 -46 -18 -52 0 -2 6 5 14 16 17 21 5 23 29 4 48 -28 28 -73 -25 -58 -70 5
-18 61 -48 83 -45 6 1 16 2 21 3 9 1 33 59 45 106 3 11 4 -4 2 -33 -5 -79 -39
-106 -113 -88 -73 17 -86 109 -25 179 19 22 34 22 62 -1z"/>
<path d="M2574 2604 c26 -26 55 -59 66 -73 18 -27 18 -27 -11 -60 -16 -19 -29
-37 -29 -41 0 -4 -13 -24 -30 -45 -35 -44 -38 -71 -10 -80 23 -7 63 12 54 26
-3 6 2 13 13 15 10 3 29 25 42 50 13 24 27 44 30 44 3 0 19 -21 35 -46 24 -39
90 -94 112 -94 11 0 -4 84 -24 131 -12 27 -30 49 -46 57 -28 13 -34 33 -13 50
7 6 19 27 27 47 7 19 16 31 20 25 3 -5 11 0 19 11 10 17 10 20 -1 13 -7 -5
-18 -9 -25 -10 -6 -1 -30 -17 -52 -34 l-40 -32 -28 19 c-27 18 -45 27 -122 60
-33 14 -33 14 13 -33z"/>
<path d="M1673 2530 c-24 -3 -45 -9 -48 -12 -8 -7 46 -25 100 -33 22 -3 47 -8
55 -10 22 -7 42 9 34 28 -9 25 -76 38 -141 27z"/>
<path d="M2408 2474 c-16 -8 -28 -19 -28 -23 0 -24 76 -21 92 3 8 12 -9 36
-26 36 -6 -1 -23 -8 -38 -16z"/>
<path d="M2043 2441 c-77 -11 -19 -41 87 -47 54 -2 77 11 55 32 -16 17 -79 23
-142 15z"/>
<path d="M1423 2398 c-16 -20 -25 -56 -15 -62 14 -8 72 37 69 54 -3 19 -41 25
-54 8z"/>
<path d="M1348 2193 c-16 -75 39 -84 57 -10 7 25 5 27 -23 27 -21 0 -32 -5
-34 -17z"/>
<path d="M1402 1983 c-16 -28 8 -64 56 -84 56 -24 65 -24 51 2 -10 19 -87 99
-95 99 -2 0 -7 -8 -12 -17z"/>
<path d="M1674 1882 c-20 -13 2 -49 33 -54 51 -7 112 3 107 17 -10 24 -117 52
-140 37z"/>
<path d="M1972 1857 c-17 -20 10 -46 49 -48 69 -4 101 1 97 14 -10 29 -127 57
-146 34z"/>
<path d="M2270 1795 c0 -27 35 -47 103 -58 59 -9 41 25 -34 63 -52 27 -69 26
-69 -5z"/>
<path d="M2556 1712 c-13 -21 4 -49 40 -66 69 -34 74 -36 79 -36 14 0 2 39
-18 58 -27 26 -94 55 -101 44z"/>
<path d="M2768 1496 c-22 -17 -23 -35 -1 -65 15 -23 17 -23 30 -6 16 23 17 46
1 68 -11 13 -16 14 -30 3z"/>
<path d="M2753 1307 c-14 -24 -35 -48 -47 -53 -29 -13 -27 -38 5 -42 40 -5 75
37 78 92 1 26 -1 46 -4 46 -3 0 -17 -19 -32 -43z"/>
<path d="M2027 1210 c6 -23 12 -27 55 -34 30 -5 108 13 108 25 0 11 -24 17
-102 24 -65 7 -67 7 -61 -15z"/>
<path d="M2350 1210 c-15 -10 -1 -38 22 -46 24 -7 136 5 143 16 3 4 -3 11 -13
15 -26 11 -141 22 -152 15z"/>
<path d="M1853 1200 c-21 -9 -43 -38 -43 -59 0 -23 40 -10 61 20 24 34 16 51
-18 39z"/>
<path d="M1708 1133 c7 -3 16 -2 19 1 4 3 -2 6 -13 5 -11 0 -14 -3 -6 -6z"/>
<path d="M1756 1123 c-6 -7 -29 -10 -106 -16 -14 -1 -27 -4 -30 -7 -3 -3 -23
-17 -46 -32 -148 -95 -182 -204 -79 -252 91 -44 189 -19 279 70 52 53 66 79
66 124 0 35 -28 97 -47 104 -10 4 -11 1 -3 -14 5 -10 14 -21 19 -24 15 -9 22
-72 12 -99 -25 -64 -158 -157 -226 -157 -80 0 -142 50 -124 99 21 55 107 123
195 155 34 12 45 12 72 0 18 -7 32 -20 32 -29 0 -9 6 -15 13 -12 17 6 10 39
-13 58 -14 12 -16 19 -7 28 6 6 9 11 6 11 -3 0 -9 -3 -13 -7z"/>
<path d="M1318 2874 c-4 -3 0 -22 8 -41 20 -47 12 -52 -12 -8 -17 31 -54 49
-54 26 0 -13 50 -145 58 -153 4 -4 13 -4 20 1 10 6 9 15 -2 43 -13 29 -13 35
-1 35 8 0 12 -4 9 -8 -6 -10 17 -59 28 -59 4 0 8 4 8 8 0 19 -57 162 -62 156z"/>
<path d="M1569 2809 c-18 -26 -19 -33 -8 -40 19 -12 29 -11 30 4 0 6 3 24 5
40 6 35 0 34 -27 -4z"/>
<path d="M1098 2619 c32 -29 35 -29 47 -12 7 10 12 19 11 20 -1 1 -22 6 -46
12 l-45 10 33 -30z"/>
<path d="M3035 899 c-10 -15 3 -25 16 -12 7 7 7 13 1 17 -6 3 -14 1 -17 -5z"/>
<path d="M3003 853 c-19 -7 -16 -50 4 -57 24 -10 51 20 37 41 -12 19 -23 24
-41 16z"/>
</g>
</svg>
