<?xml version="1.0" standalone="no"?>
<!DOCTYPE svg PUBLIC "-//W3C//DTD SVG 20010904//EN"
 "http://www.w3.org/TR/2001/REC-SVG-20010904/DTD/svg10.dtd">
<svg version="1.0" xmlns="http://www.w3.org/2000/svg"
 width="400.000000pt" height="400.000000pt" viewBox="0 0 400.000000 400.000000"
 preserveAspectRatio="xMidYMid meet">
<metadata>
Created by potrace 1.11, written by Peter Selinger 2001-2013
</metadata>
<g transform="translate(0.000000,400.000000) scale(0.100000,-0.100000)"
fill="#000000" stroke="none">
<path d="M1510 3953 c-19 -2 -69 -10 -110 -18 -41 -8 -86 -16 -100 -19 -104
-20 -262 -89 -319 -141 -22 -20 -45 -52 -52 -72 -16 -50 -7 -124 24 -182 l25
-49 -30 -13 c-56 -23 -182 -120 -263 -203 -240 -244 -450 -626 -540 -982 -44
-176 -50 -227 -50 -444 1 -153 5 -204 24 -295 45 -216 126 -418 251 -625 92
-152 161 -242 275 -356 187 -189 394 -315 668 -408 500 -171 1103 -125 1585
120 243 124 441 287 627 519 188 234 296 460 356 745 39 189 34 507 -12 715
-43 197 -124 427 -198 565 -126 236 -338 458 -651 682 -122 88 -193 129 -281
164 -69 27 -272 78 -354 89 -27 4 -61 8 -75 10 -91 14 -261 24 -411 24 l-116
1 -45 58 c-73 94 -135 126 -228 115z m695 -488 c530 -86 961 -394 1187 -850
78 -156 139 -355 155 -506 15 -144 8 -371 -16 -484 -104 -499 -418 -904 -863
-1114 -440 -209 -929 -206 -1356 8 -122 61 -145 74 -257 157 -285 209 -510
562 -581 909 -59 289 -44 557 46 827 55 162 171 376 270 493 59 71 201 206
268 257 229 172 475 267 802 311 39 5 301 -1 345 -8z"/>
<path d="M1571 3341 c-13 -8 -13 -14 -2 -38 7 -15 35 -84 61 -153 26 -69 57
-150 69 -180 28 -73 14 -53 -115 157 -58 95 -110 173 -115 173 -5 0 -17 -4
-27 -9 -9 -5 -32 -15 -49 -21 -38 -14 -39 -18 -15 -62 10 -18 58 -141 107
-273 48 -132 89 -241 91 -243 5 -7 114 32 114 40 0 5 -10 28 -21 50 -27 52
-140 330 -136 334 4 4 147 -211 192 -290 43 -76 52 -83 78 -64 16 12 11 29
-62 208 -43 107 -92 235 -108 285 -17 49 -34 90 -39 92 -5 1 -15 -1 -23 -6z"/>
<path d="M1980 3188 c-7 -40 -14 -80 -15 -88 -2 -19 -15 -106 -20 -128 -6 -32
-27 -175 -30 -206 -5 -54 -16 -150 -20 -176 -43 -286 -52 -837 -20 -1175 1
-16 6 -68 10 -115 4 -47 8 -92 10 -100 2 -8 6 -51 11 -95 4 -44 8 -82 9 -85 1
-3 5 -34 9 -70 5 -36 10 -72 11 -80 1 -8 6 -44 11 -80 4 -36 8 -67 9 -70 1 -3
5 -30 9 -60 8 -59 16 -106 21 -130 2 -8 4 -24 4 -34 1 -27 11 -14 16 20 2 16
10 72 19 124 8 52 18 115 21 140 3 25 8 61 11 80 7 53 13 100 19 150 3 25 7
56 10 70 2 14 7 57 10 95 4 39 8 86 10 105 24 265 28 348 29 600 1 213 -8 455
-18 520 -3 14 -7 66 -11 115 -4 50 -8 92 -10 95 -1 3 -6 37 -9 75 -3 39 -8 81
-10 95 -6 33 -14 88 -27 175 -16 116 -49 305 -53 305 -2 0 -9 -33 -16 -72z
m59 -1183 c28 -8 51 -50 53 -92 2 -48 -45 -93 -97 -93 -41 0 -93 42 -99 80
-11 81 58 132 143 105z"/>
<path d="M2555 3183 c-90 -105 -153 -188 -147 -193 17 -13 132 -63 136 -59 5
5 9 22 36 184 10 60 18 111 17 112 -2 1 -21 -19 -42 -44z"/>
<path d="M690 2506 c37 -36 225 -184 231 -181 9 6 62 135 58 140 -5 4 -40 11
-99 21 -19 3 -44 7 -55 9 -11 1 -38 6 -60 10 -22 3 -51 8 -65 11 -22 5 -23 4
-10 -10z"/>
<path d="M3317 2433 c-1 0 -31 -4 -67 -7 -36 -4 -85 -9 -110 -11 -25 -3 -67
-7 -95 -10 -86 -8 -145 -17 -145 -21 0 -4 82 -228 86 -232 1 -2 26 13 56 34
210 147 348 246 348 250 0 4 -69 1 -73 -3z"/>
<path d="M805 1545 c-104 -74 -193 -135 -197 -135 -5 0 -8 -4 -8 -9 0 -6 9 -8
21 -6 11 2 53 7 92 10 40 3 91 8 115 10 80 9 127 14 192 21 36 3 67 8 69 10 5
5 -81 234 -88 234 -3 0 -91 -61 -196 -135z"/>
<path d="M3090 1477 c-16 -37 -30 -71 -30 -75 0 -5 35 -15 78 -22 42 -8 79
-14 82 -15 3 0 27 -4 53 -9 27 -4 57 -9 68 -11 10 -2 19 -2 19 -1 0 2 -46 41
-102 86 -57 46 -111 90 -120 98 -17 14 -20 10 -48 -51z"/>
<path d="M2381 1009 c-58 -21 -107 -41 -109 -43 -4 -5 277 -406 284 -406 2 0
2 15 -1 33 -4 34 -8 68 -26 257 -6 63 -12 124 -14 135 -2 11 -4 30 -4 43 -1
12 -7 22 -13 22 -7 -1 -60 -19 -117 -41z"/>
<path d="M1485 898 c-3 -18 -9 -46 -11 -63 -3 -16 -12 -68 -20 -113 -9 -46
-14 -85 -12 -87 2 -2 47 49 100 113 l97 117 -62 32 c-34 18 -67 32 -73 33 -6
0 -15 -15 -19 -32z"/>
</g>
</svg>
